<?xml version="1.0" standalone="no"?>
<!DOCTYPE svg PUBLIC "-//W3C//DTD SVG 20010904//EN"
 "http://www.w3.org/TR/2001/REC-SVG-20010904/DTD/svg10.dtd">
<svg version="1.0" xmlns="http://www.w3.org/2000/svg"
 width="1183.000000pt" height="715.000000pt" viewBox="0 0 1183.000000 715.000000"
 preserveAspectRatio="xMidYMid meet">

<g transform="translate(0.000000,715.000000) scale(0.100000,-0.100000)"
fill="#000000" stroke="none">
<path d="M0 6122 c0 -639 4 -1032 10 -1038 14 -14 42 -132 47 -201 4 -47 -1
-76 -18 -123 -12 -33 -26 -63 -30 -66 -5 -3 -9 -1060 -9 -2350 l0 -2344 5910
0 5910 0 0 1294 0 1294 -32 31 c-32 32 -44 36 -72 25 -19 -7 -21 -44 -3 -44
18 0 49 -34 40 -43 -13 -13 -79 -6 -120 12 -25 12 -48 32 -57 50 -20 37 -21
133 -2 169 37 71 143 103 211 64 l35 -21 0 2149 0 2150 -270 0 c-173 0 -270 4
-270 10 0 7 -1887 10 -5640 10 l-5640 0 0 -1028z m3570 889 c-95 -50 -244 -54
-320 -8 l-45 27 200 -1 200 0 -35 -18z m2861 -32 c53 -79 58 -91 90 -199 42
-139 26 -370 -26 -370 -16 0 -74 48 -118 98 -16 17 -33 32 -38 32 -5 0 -18
-21 -30 -46 -15 -33 -18 -49 -10 -57 6 -6 11 -19 11 -28 0 -10 11 -30 24 -46
42 -51 47 -68 28 -90 -9 -11 -37 -31 -62 -44 -25 -14 -44 -31 -42 -38 2 -8 -4
-10 -18 -6 -13 4 -29 -1 -46 -14 -22 -17 -41 -21 -110 -21 -72 0 -87 3 -105
21 -15 15 -35 21 -77 23 -58 2 -102 21 -102 43 0 7 -7 13 -15 13 -8 0 -38 24
-68 53 -44 44 -57 66 -77 128 -14 41 -25 77 -25 81 0 3 -3 10 -7 14 -13 12 -8
144 6 204 13 56 28 89 55 123 8 9 11 17 6 17 -8 0 64 93 77 98 4 2 23 17 44
33 l37 29 282 0 282 0 34 -51z m4992 -68 c15 -6 27 -8 27 -6 0 3 20 -14 43
-37 79 -77 90 -170 32 -272 -19 -34 -45 -72 -57 -84 -32 -29 -90 -52 -133 -52
l-35 0 0 76 c0 82 -11 114 -39 114 -15 0 -20 -12 -27 -72 -5 -39 -14 -73 -20
-75 -21 -7 -83 69 -99 122 -22 76 -19 120 12 177 52 95 196 148 296 109z
m-8183 -287 c57 -19 104 -50 158 -105 56 -57 87 -123 109 -231 15 -74 15 -97
6 -155 -11 -61 -45 -162 -65 -188 -61 -82 -124 -123 -223 -146 -59 -14 -282
-23 -342 -14 -46 7 -92 44 -119 97 -15 29 -15 30 35 78 63 61 86 103 66 120
-16 13 -32 6 -58 -27 -19 -23 -67 -53 -86 -53 -5 0 -22 18 -39 40 -16 22 -32
37 -35 33 -4 -3 -7 -1 -7 5 0 7 -9 12 -19 12 -11 0 -22 4 -26 10 -3 5 -23 -8
-43 -29 -112 -116 -273 -44 -260 116 8 93 60 128 188 125 87 -1 115 -8 114
-26 -1 -9 4 -16 12 -16 8 0 16 16 20 41 5 26 10 36 15 28 9 -15 8 -17 34 36
32 65 144 169 227 211 127 63 227 74 338 38z m7722 -111 c40 -15 56 -28 83
-68 41 -63 55 -112 55 -200 0 -78 -21 -132 -68 -174 -15 -13 -43 -38 -64 -57
-20 -18 -49 -36 -65 -40 -15 -4 -33 -11 -40 -16 -7 -5 -49 -8 -95 -7 -66 2
-86 7 -96 21 -7 10 -18 18 -25 18 -16 0 -67 51 -67 67 0 7 -4 13 -10 13 -5 0
-10 9 -10 20 0 12 -6 31 -14 43 -8 12 -17 62 -20 110 -6 73 -4 93 9 114 11 17
23 23 36 20 18 -5 23 3 20 31 -1 6 4 12 11 12 7 0 18 10 23 23 6 12 21 24 34
25 13 2 26 12 28 23 3 12 11 18 19 15 8 -3 28 1 46 9 46 20 150 19 210 -2z
m-6368 -593 c-165 -254 -209 -337 -262 -495 -52 -153 -66 -259 -59 -450 7
-210 44 -335 139 -463 82 -111 178 -150 342 -139 163 11 444 127 658 274 97
66 115 81 239 201 86 81 120 109 106 85 -11 -19 -47 -103 -47 -110 0 -16 -108
-221 -134 -255 -14 -19 -26 -38 -26 -42 0 -30 -195 -252 -259 -295 -33 -23
-149 -128 -175 -160 -38 -46 -85 -78 -148 -101 -161 -59 -169 -61 -223 -47
-49 13 -50 14 -59 60 -5 26 -12 47 -15 47 -13 -1 -52 -97 -45 -113 3 -9 10
-14 15 -11 5 3 9 -2 9 -10 0 -9 5 -16 11 -16 6 0 29 -16 51 -36 27 -24 45 -33
56 -29 10 4 24 7 32 7 8 1 39 11 68 24 29 13 60 24 70 24 9 0 46 7 82 15 131
29 282 56 287 51 11 -11 -45 -92 -82 -118 -131 -91 -276 -128 -503 -128 -240
0 -527 58 -730 147 -18 8 -38 12 -45 10 -7 -3 2 -8 18 -12 17 -5 39 -14 50
-20 11 -7 38 -18 60 -25 22 -7 47 -19 56 -26 9 -8 18 -12 21 -9 2 3 45 -4 94
-16 264 -60 428 -75 664 -59 l75 5 28 -56 c39 -77 42 -124 10 -138 -13 -6 -30
-11 -38 -11 -8 0 -16 -3 -18 -7 -3 -5 16 -7 42 -5 42 3 50 0 86 -35 l39 -38
-22 36 c-12 20 -22 43 -22 51 0 20 35 50 103 88 32 18 83 55 113 83 l55 50 77
-27 c42 -15 79 -32 83 -38 13 -21 27 49 28 140 1 65 15 65 50 3 l24 -43 51 7
c28 3 71 15 95 26 108 47 279 173 346 254 22 26 50 59 62 74 13 14 23 30 23
34 0 5 4 6 8 3 14 -8 -40 -310 -67 -378 -5 -15 -26 -61 -45 -102 -32 -68 -48
-90 -106 -152 -11 -12 -20 -25 -20 -30 0 -15 -281 -291 -329 -324 -12 -8 -40
-31 -62 -51 -22 -20 -58 -41 -80 -48 -21 -6 -39 -16 -39 -20 0 -5 -15 -14 -32
-21 -60 -22 -137 -60 -143 -70 -3 -6 -22 -10 -41 -10 -20 0 -42 -6 -50 -14 -8
-8 -40 -19 -72 -25 -31 -6 -79 -18 -107 -26 -106 -30 -164 -38 -297 -38 -76 0
-140 2 -144 5 -3 4 -6 39 -6 78 0 55 -4 76 -18 90 -13 13 -20 48 -30 148 -13
142 -11 165 21 205 28 36 85 37 122 3 l25 -24 -1 27 c-2 23 4 28 48 43 46 16
47 17 18 18 -53 0 -81 19 -97 64 l-14 41 -1 -41 c-1 -29 4 -44 14 -48 22 -8
18 -33 -5 -39 -11 -3 -20 0 -20 6 0 8 -33 12 -107 12 -60 0 -146 3 -193 7 -50
5 -77 4 -65 -1 19 -8 75 -65 75 -75 0 -3 14 -28 30 -56 17 -28 39 -90 50 -138
12 -48 25 -99 29 -114 6 -17 5 -30 0 -34 -24 -15 -247 53 -261 79 -5 10 -12
86 -15 167 -7 163 -2 179 46 181 22 0 19 3 -14 13 -26 8 -42 9 -47 2 -3 -5 -4
-75 -2 -155 3 -81 1 -152 -4 -159 -7 -10 -22 -4 -68 26 -32 21 -84 55 -115 75
-31 21 -78 56 -103 78 -64 57 -61 80 16 123 32 17 66 41 78 53 l20 22 -37 26
c-21 14 -47 24 -58 24 -15 -1 -16 -2 -4 -6 9 -2 21 -14 27 -26 10 -20 11 -20
11 -3 1 20 1 20 15 0 13 -17 12 -21 -5 -37 -13 -13 -28 -17 -44 -13 -13 3 -27
1 -30 -4 -4 -6 -11 -8 -16 -5 -5 4 -9 1 -9 -4 0 -6 -5 -11 -11 -11 -6 0 -9 6
-6 14 8 20 -15 26 -38 10 -16 -12 -16 -14 -3 -14 10 0 16 -8 16 -17 0 -10 4
-37 10 -60 5 -23 8 -44 5 -46 -7 -8 -43 5 -38 13 3 5 -3 6 -14 3 -10 -3 -22 0
-25 6 -10 16 -46 13 -46 -3 0 -9 -12 -16 -27 -18 -16 -2 -28 -7 -27 -13 0 -5
-6 -16 -13 -23 -7 -7 -13 -31 -13 -53 0 -56 -15 -79 -49 -79 -16 0 -31 7 -35
15 -6 17 -58 20 -85 5 -35 -18 -247 -15 -341 5 -29 6 -50 19 -50 31 0 8 -9 14
-20 14 -10 0 -28 10 -40 22 -18 20 -20 20 -20 4 0 -15 -3 -16 -15 -6 -9 7 -14
21 -13 31 2 9 -9 30 -23 47 -15 16 -30 39 -33 50 -4 12 -20 34 -37 49 -33 32
-38 53 -11 53 45 0 69 71 27 78 -11 2 -25 9 -30 16 -6 7 -21 17 -35 21 -24 8
-24 8 -5 16 18 7 18 8 2 8 -13 1 -17 6 -13 19 3 9 10 55 16 102 6 47 16 87 21
88 5 2 9 10 9 18 0 8 4 14 10 14 5 0 19 20 31 44 15 33 27 45 50 50 16 3 29
12 29 19 0 7 11 23 24 34 13 12 28 29 34 39 5 9 20 18 33 20 13 1 27 3 31 3 4
1 12 27 20 59 l12 57 12 -55 c15 -74 22 -49 27 98 3 87 8 127 19 140 19 23 38
69 38 92 0 11 9 24 20 30 17 9 20 21 20 91 0 62 -3 81 -15 85 -32 13 -45 -15
-46 -100 0 -44 -4 -99 -8 -121 l-8 -40 -8 48 c-4 29 -3 71 4 104 15 74 14 86
-3 80 -8 -3 -16 -2 -18 4 -2 5 -21 12 -43 16 -22 3 -51 14 -65 23 -14 10 -40
21 -57 25 -30 6 -47 25 -22 25 5 0 7 5 3 11 -3 6 -15 9 -25 6 -12 -3 -20 2
-24 14 -4 11 -11 16 -17 13 -5 -4 -30 15 -54 42 -24 27 -44 43 -44 36 0 -7 -5
-10 -11 -6 -8 5 -8 8 0 13 7 5 3 29 -14 77 -27 78 -32 144 -18 221 8 43 20 63
61 107 29 30 52 59 52 65 0 11 88 61 130 73 14 4 59 8 100 9 61 1 89 -4 144
-26 56 -22 86 -28 170 -30 l101 -2 120 115 c203 196 482 365 750 455 148 49
278 87 284 81 2 -1 -23 -44 -55 -94z m2444 -326 c35 -17 60 -40 81 -71 34 -51
37 -63 19 -82 -11 -11 -10 -14 0 -18 25 -10 32 -40 21 -95 -15 -72 -42 -113
-96 -144 -38 -23 -52 -26 -98 -21 -74 7 -137 38 -186 89 -23 24 -45 42 -49 41
-12 -4 -23 92 -15 137 13 79 77 159 145 183 42 15 128 6 178 -19z m-4943 -744
c114 -55 226 -264 212 -396 -3 -30 -15 -74 -26 -98 -12 -23 -21 -45 -21 -48 0
-17 -57 -68 -76 -68 -12 0 -24 -6 -27 -14 -3 -8 -16 -16 -28 -18 -15 -2 -25
-12 -29 -28 -4 -15 -19 -32 -40 -42 -24 -12 -29 -17 -16 -18 48 -1 -19 -17
-104 -25 -86 -8 -177 -6 -204 4 -16 6 -44 13 -63 16 -50 6 -74 15 -68 25 3 5
-2 15 -10 22 -70 57 -95 89 -95 122 0 19 -4 37 -9 41 -10 6 -12 16 -11 80 1
50 15 96 51 160 24 42 40 57 101 90 40 21 96 55 123 76 28 20 77 51 110 67 33
17 74 40 90 51 38 26 87 27 140 1z m5173 -332 c2 -4 8 -5 14 -2 16 10 78 -6
78 -20 0 -8 14 -16 30 -19 21 -5 30 -12 30 -26 0 -10 7 -25 16 -32 25 -20 35
-57 40 -141 5 -71 3 -78 -21 -102 -14 -14 -25 -31 -25 -38 0 -22 -41 -56 -109
-91 -60 -29 -65 -35 -65 -64 0 -19 9 -42 21 -55 60 -65 81 -165 43 -206 -11
-12 -20 -24 -20 -27 0 -3 -18 -22 -40 -44 -43 -41 -91 -56 -151 -45 -82 16
-151 84 -142 140 4 23 2 26 -7 14 -16 -22 -2 76 18 120 22 48 53 90 68 90 16
0 23 78 8 91 -23 19 -74 134 -74 166 0 42 20 135 31 148 5 5 9 17 9 27 0 9 9
22 20 28 11 6 20 15 20 21 0 6 -4 7 -10 4 -5 -3 -10 -1 -10 5 0 6 10 8 25 4
18 -4 25 -2 25 9 0 8 6 14 13 13 6 0 12 2 12 6 0 12 39 36 65 40 32 6 84 -3
88 -14z m1066 -42 c54 -40 69 -78 64 -151 -8 -92 -50 -160 -113 -183 -65 -23
-91 -22 -152 7 -66 31 -108 75 -118 122 -18 80 34 198 97 217 60 19 72 21 130
18 43 -2 64 -8 92 -30z m-7005 -410 c65 -31 130 -98 152 -156 19 -50 26 -169
12 -184 -5 -4 -8 -11 -8 -14 -1 -17 -36 -70 -66 -102 -49 -51 -117 -81 -162
-70 -40 9 -90 2 -81 -11 3 -5 -4 -9 -16 -9 -13 0 -19 4 -14 12 5 8 0 9 -14 6
-12 -4 -25 -2 -28 4 -4 5 -19 7 -35 4 -16 -3 -29 -1 -29 4 0 5 -12 10 -27 12
-20 2 -28 9 -29 24 -2 30 -13 46 -27 38 -7 -4 -9 -3 -4 1 4 5 -2 18 -13 30
-12 13 -24 46 -30 80 -11 68 4 135 45 197 14 21 25 41 25 45 0 5 17 19 38 33
20 14 39 28 42 31 9 10 54 33 70 34 8 1 24 6 35 13 27 16 109 5 164 -22z
m3970 -303 c28 -21 51 -44 51 -50 0 -17 -101 -96 -172 -136 -32 -17 -58 -35
-58 -39 0 -13 -37 -9 -48 5 -11 13 -64 149 -60 152 2 1 46 21 98 44 52 23 102
46 110 51 22 14 24 13 79 -27z m3921 -255 c78 -27 100 -54 100 -124 0 -24 4
-44 9 -44 17 0 22 -34 8 -45 -8 -6 -17 -24 -18 -40 -3 -18 -18 -44 -41 -66
-21 -20 -34 -40 -30 -44 4 -4 -5 -5 -20 -3 -17 3 -28 1 -28 -6 0 -6 -5 -3 -11
7 -13 23 -54 22 -87 -3 -21 -16 -39 -20 -77 -17 -33 3 -49 8 -47 16 3 15 -23
43 -32 34 -3 -4 -6 8 -6 27 0 28 -2 31 -15 20 -8 -7 -15 -11 -15 -9 -10 143
-8 156 22 203 28 42 85 86 118 92 19 3 46 9 60 14 36 12 37 12 110 -12z
m-7311 -68 c43 -20 90 -58 91 -73 0 -4 12 -26 26 -48 31 -49 43 -156 25 -212
-15 -44 -78 -123 -121 -150 -26 -17 -50 -20 -129 -21 -90 -1 -100 1 -139 27
-33 21 -42 33 -42 56 0 22 -7 31 -29 41 -35 14 -61 70 -61 131 0 88 100 227
185 257 51 18 145 14 194 -8z m2479 -47 c-19 -5 -25 -38 -8 -46 6 -3 5 -4 -2
-3 -7 1 -17 12 -23 24 -5 12 -16 23 -25 26 -8 2 5 4 30 4 25 0 37 -2 28 -5z
m-516 -155 c47 -40 113 -89 147 -108 49 -28 63 -42 72 -72 6 -20 9 -52 5 -72
-6 -32 -10 -35 -31 -30 -17 4 -27 1 -31 -9 -4 -13 -14 -10 -52 16 -26 17 -49
33 -52 36 -3 4 -27 24 -55 46 -67 53 -89 77 -103 111 -18 44 -12 154 8 154 4
0 46 -33 92 -72z m4048 11 c57 -39 74 -67 78 -128 6 -80 -10 -120 -60 -159
-41 -32 -78 -39 -161 -34 -16 1 -26 -2 -23 -7 3 -5 -6 -8 -20 -8 -14 0 -28 6
-31 14 -3 7 -23 23 -44 34 -37 18 -39 22 -39 64 0 25 -4 45 -10 45 -14 0 -13
66 1 93 12 24 59 66 72 67 5 0 23 7 40 15 77 36 150 37 197 4z m-3611 -239
c58 -16 117 -30 133 -30 28 0 28 -1 28 -62 0 -35 -5 -70 -10 -78 -5 -8 -10
-10 -10 -3 0 6 -26 15 -57 21 -49 8 -59 7 -70 -7 -12 -14 -14 -14 -31 8 -11
13 -31 25 -45 26 -38 4 -84 41 -90 71 -2 15 0 42 5 61 7 26 14 34 26 29 9 -3
64 -19 121 -36z m4739 -87 c46 -29 72 -60 82 -94 12 -40 -1 -88 -30 -114 -27
-24 -98 -30 -142 -12 -29 12 -39 24 -52 64 -9 28 -13 58 -10 69 15 41 46 74
68 74 13 0 29 7 36 15 15 19 15 19 48 -2z m-5504 -102 c37 -6 93 -22 123 -36
63 -32 144 -108 163 -156 8 -19 18 -37 23 -40 14 -10 11 -181 -3 -226 -41
-125 -106 -195 -235 -252 -51 -22 -99 -41 -107 -41 -10 0 -9 -3 2 -11 11 -8 4
-9 -27 -7 -24 2 -43 0 -43 -4 0 -5 6 -8 14 -8 8 0 18 -5 21 -10 4 -7 -2 -9
-19 -4 -28 7 -36 -9 -13 -23 7 -4 23 -28 34 -53 17 -37 20 -58 16 -120 -3 -43
-13 -90 -24 -111 -19 -38 -94 -109 -115 -109 -6 0 -33 -10 -59 -21 -106 -47
-243 12 -289 125 -20 49 -21 143 -1 187 38 83 53 104 82 113 16 5 34 18 39 29
5 11 18 25 29 31 27 15 55 46 55 61 0 7 -7 18 -15 25 -23 19 -82 123 -93 164
-11 39 -1 56 35 56 28 0 30 16 3 25 -11 3 -20 12 -20 20 0 7 -7 15 -15 19 -8
3 -15 12 -15 20 0 8 -5 16 -10 18 -13 4 -18 76 -5 79 14 2 31 29 38 60 4 16
16 29 29 32 12 4 19 9 16 12 -7 8 101 112 145 140 33 21 105 35 147 29 14 -2
56 -8 94 -13z m-1584 -416 c72 -37 112 -110 114 -207 0 -37 4 -68 7 -68 3 0
14 7 25 15 54 41 144 -16 144 -93 0 -138 -203 -181 -234 -49 l-7 28 -46 -36
c-34 -26 -56 -35 -84 -35 -21 0 -41 5 -45 11 -3 6 -17 8 -31 4 -29 -7 -64 12
-106 59 -55 60 -71 138 -43 214 15 43 82 124 120 148 58 34 129 38 186 9z
m-382 -286 c74 -36 100 -111 69 -196 -16 -42 -61 -91 -92 -99 -29 -7 -103 2
-125 16 -12 8 -11 13 8 33 43 46 16 80 -40 51 -41 -21 -51 -9 -56 69 -3 53 -1
66 19 91 45 58 138 73 217 35z m8469 -101 c6 -7 16 -53 23 -101 13 -84 12 -89
-7 -115 -20 -27 -68 -42 -105 -34 -24 6 -23 19 1 27 19 6 34 41 25 57 -4 5
-14 2 -23 -6 -10 -9 -32 -19 -49 -22 -28 -6 -33 -3 -42 20 -5 15 -10 48 -10
73 0 38 5 50 34 79 30 30 40 34 89 34 32 0 59 -5 64 -12z m-7432 -151 c83 -83
37 -244 -79 -277 -38 -10 -49 -10 -81 5 -20 10 -47 34 -60 53 -25 36 -25 36
-5 57 26 27 26 55 0 62 -39 10 -17 79 36 114 21 14 47 19 93 19 58 0 66 -3 96
-33z m-1526 0 c42 -21 35 -34 -21 -41 -29 -3 -70 -9 -90 -12 -43 -7 -48 3 -15
33 38 35 84 42 126 20z m590 -119 c50 -29 82 -77 88 -133 7 -60 -36 -147 -89
-183 -33 -22 -46 -24 -114 -20 -76 3 -77 4 -114 46 -40 44 -57 105 -44 156 7
31 15 31 93 10 33 -9 66 -14 75 -11 27 10 19 46 -11 57 -74 27 -104 44 -101
59 9 45 151 57 217 19z m-514 -17 c11 -20 -27 -89 -70 -124 -60 -50 -114 -52
-162 -5 -18 18 -33 37 -33 44 0 15 49 52 100 76 38 18 155 24 165 9z m-1 -376
c94 -27 139 -64 180 -145 31 -62 36 -83 36 -141 0 -88 -27 -159 -85 -225 -48
-56 -113 -89 -149 -78 -11 4 -48 7 -80 5 -49 -1 -71 4 -127 31 -105 52 -138
120 -126 262 5 64 11 77 69 166 40 61 71 91 125 120 45 24 87 25 157 5z m1183
-80 c12 -4 23 -14 25 -23 2 -9 21 -25 42 -36 63 -34 80 -78 86 -226 5 -113 8
-128 28 -148 12 -12 34 -22 50 -22 39 0 108 -52 126 -95 39 -94 28 -166 -35
-219 -36 -30 -102 -50 -138 -41 -14 3 -38 9 -53 12 -15 3 -29 12 -33 20 -5 14
3 15 55 10 33 -4 60 -5 60 -2 0 10 -45 27 -98 35 -46 8 -62 16 -83 42 -26 31
-27 31 -38 10 -17 -32 -82 -72 -117 -72 -94 0 -125 125 -54 215 23 29 28 41
19 51 -6 8 -17 14 -25 14 -23 0 -95 73 -120 122 -39 76 -29 161 30 251 30 46
72 77 104 77 9 0 12 3 8 7 -9 9 79 30 114 28 14 -1 35 -5 47 -10z m7701 -101
c69 -34 102 -82 102 -147 0 -59 -19 -98 -67 -134 -30 -23 -46 -28 -94 -28 -62
0 -94 17 -133 68 -36 49 -14 194 37 235 16 14 61 30 88 31 8 1 39 -11 67 -25z
m-287 -197 c46 -30 71 -82 63 -127 -14 -83 -75 -130 -151 -115 -103 19 -125
161 -35 234 44 37 77 39 123 8z m-3941 -39 c0 -23 -3 -29 -9 -19 -8 12 -4 51
5 51 2 0 4 -15 4 -32z m127 0 c-3 -8 -6 -5 -6 6 -1 11 2 17 5 13 3 -3 4 -12 1
-19z m630 -60 c-3 -7 -5 -2 -5 12 0 14 2 19 5 13 2 -7 2 -19 0 -25z m2131 -13
c102 -43 139 -141 92 -247 -46 -105 -84 -128 -207 -128 -105 0 -138 15 -179
85 -24 41 -26 52 -19 98 4 29 8 67 8 86 0 21 2 28 8 20 6 -11 9 -9 15 5 11 29
49 62 90 79 50 21 144 21 192 2z m-794 -173 c117 -63 152 -215 72 -309 -40
-46 -131 -93 -181 -93 -20 0 -53 9 -75 20 -22 11 -47 20 -57 20 -23 0 -70 71
-79 118 -11 55 2 152 24 181 26 36 93 81 133 91 50 13 106 3 163 -28z m-7046
-87 c6 -49 -56 -77 -78 -34 -17 31 12 71 48 67 22 -2 28 -9 30 -33z m7415 -25
c55 -44 42 -139 -25 -180 -72 -44 -148 -7 -148 73 0 41 29 100 58 117 29 16
88 11 115 -10z m1855 -191 c109 -53 130 -179 46 -277 l-36 -42 -114 0 -114 0
-20 32 c-29 48 -35 107 -16 170 34 116 147 169 254 117z m-2647 -48 c13 -11
29 -21 36 -21 8 0 16 -6 19 -14 3 -9 12 -12 21 -9 11 4 14 2 9 -5 -4 -6 5 -30
19 -52 22 -35 25 -51 23 -103 l-3 -62 -245 -3 -246 -2 4 55 c3 60 38 150 68
177 11 9 39 28 64 43 41 24 52 26 127 22 65 -4 86 -9 104 -26z m66 3 c-3 -3
-12 -4 -19 -1 -8 3 -5 6 6 6 11 1 17 -2 13 -5z m-6726 -43 c24 -25 29 -37 29
-81 0 -41 -5 -56 -24 -75 -53 -53 -116 -41 -150 28 -53 108 63 210 145 128z
m7867 13 c88 -61 55 -194 -48 -194 -51 0 -76 13 -94 49 -23 44 1 118 49 153
17 13 70 9 93 -8z m-2561 -76 c-3 -8 -6 -5 -6 6 -1 11 2 17 5 13 3 -3 4 -12 1
-19z m2221 -140 c20 -20 14 -28 -23 -28 -22 0 -35 5 -35 13 0 28 36 37 58 15z"/>
<path d="M2530 6286 c0 -4 7 -14 15 -22 8 -9 15 -11 15 -6 0 5 -7 15 -15 22
-8 7 -15 9 -15 6z"/>
<path d="M4035 4652 c-8 -37 -22 -50 -62 -58 -24 -5 -36 -1 -53 16 -25 25 -36
21 -20 -9 8 -15 20 -21 45 -21 19 0 35 -3 35 -7 0 -5 -14 -23 -31 -40 -120
-129 -79 -313 83 -372 l56 -20 66 26 c60 23 128 73 124 91 -1 4 2 26 6 50 7
35 10 41 22 31 12 -10 14 -4 14 35 0 52 -27 115 -69 159 -16 18 -20 27 -11 25
11 -2 15 5 15 26 -1 41 -23 45 -38 7 -16 -43 -33 -33 -29 16 2 23 -1 44 -7 48
-7 4 -11 -7 -11 -32 l0 -38 -70 -1 c-66 -1 -89 7 -55 20 16 6 20 43 6 65 -7
10 -11 6 -16 -17z m124 -248 c65 -54 28 -144 -59 -144 -54 0 -90 31 -90 79 0
82 85 119 149 65z"/>
<path d="M4086 4351 c-7 -11 18 -33 27 -24 4 3 7 12 7 20 0 15 -26 18 -34 4z"/>
<path d="M4085 4630 c-10 -17 12 -37 25 -24 8 8 6 15 -4 23 -10 9 -16 9 -21 1z"/>
<path d="M3840 4533 c17 -22 20 -35 15 -63 -4 -19 -11 -41 -17 -47 -16 -20
-67 -15 -99 8 -33 23 -39 9 -9 -21 58 -58 108 -45 133 32 22 71 21 95 -2 108
-34 18 -43 11 -21 -17z"/>
<path d="M4335 4455 c9 -39 23 -55 50 -55 36 0 38 13 3 24 -18 6 -39 22 -46
36 l-14 25 7 -30z"/>
<path d="M4361 4363 c-45 -31 -17 -123 37 -123 25 0 29 15 7 24 -16 6 -20 33
-6 54 5 8 22 17 39 20 41 9 29 28 -20 35 -23 3 -45 -1 -57 -10z"/>
<path d="M3778 4324 c-34 -18 -36 -31 -5 -31 40 -1 44 -3 55 -29 8 -17 9 -31
2 -44 -14 -27 -13 -30 15 -30 36 0 52 38 35 82 -27 68 -51 80 -102 52z"/>
<path d="M4285 4206 c-22 -17 -52 -38 -65 -47 -22 -14 -23 -19 -12 -43 6 -14
19 -26 28 -26 13 0 14 3 5 14 -18 21 -4 41 46 66 38 19 49 21 65 11 11 -7 23
-10 26 -6 8 8 -10 36 -34 50 -16 11 -25 8 -59 -19z"/>
<path d="M3904 4145 c-18 -27 -13 -44 8 -28 18 13 57 14 80 2 13 -7 18 -21 18
-52 0 -31 3 -38 10 -27 5 8 10 33 10 55 0 38 -3 41 -43 58 -55 22 -63 22 -83
-8z"/>
<path d="M4067 4123 c-4 -3 -7 -27 -6 -52 1 -45 1 -45 9 -12 12 50 52 67 84
35 15 -14 16 -13 16 10 0 24 -3 26 -48 26 -27 0 -52 -3 -55 -7z"/>
<path d="M3710 3946 c0 -7 -22 -34 -50 -59 -52 -48 -60 -64 -35 -73 34 -14
152 97 139 130 -7 20 -54 21 -54 2z"/>
<path d="M2890 3939 c0 -5 5 -7 10 -4 6 3 10 8 10 11 0 2 -4 4 -10 4 -5 0 -10
-5 -10 -11z"/>
<path d="M3840 3580 c0 -5 5 -10 11 -10 5 0 7 5 4 10 -3 6 -8 10 -11 10 -2 0
-4 -4 -4 -10z"/>
<path d="M4145 3534 c3 -47 15 -56 15 -11 0 20 -4 38 -8 41 -5 3 -8 -10 -7
-30z"/>
<path d="M4080 3474 c0 -2 14 -11 31 -20 23 -11 30 -12 27 -3 -4 11 -58 33
-58 23z"/>
<path d="M4761 3045 c5 -43 -7 -55 -54 -56 -24 -1 -32 -4 -19 -6 13 -3 56 1
95 8 59 10 67 14 42 18 -17 4 -34 16 -41 29 -18 36 -26 39 -23 7z"/>
<path d="M7155 4500 c-3 -6 1 -7 9 -4 18 7 21 14 7 14 -6 0 -13 -4 -16 -10z"/>
</g>
</svg>
